<svg xmlns="http://www.w3.org/2000/svg" width="26" height="32" viewBox="0 0 26 32" fill="none">
  <path d="M13 31.75C9.5875 31.75 6.69271 30.5615 4.31562 28.1844C1.93854 25.8073 0.75 22.9125 0.75 19.5C0.75 17.2542 1.12187 14.9937 1.86562 12.7188C2.60937 10.4438 3.57187 8.38021 4.75312 6.52813C5.93437 4.67604 7.25417 3.16667 8.7125 2C10.1708 0.833333 11.6 0.25 13 0.25C14.4292 0.25 15.8656 0.833333 17.3094 2C18.7531 3.16667 20.0656 4.67604 21.2469 6.52813C22.4281 8.38021 23.3906 10.4438 24.1344 12.7188C24.8781 14.9937 25.25 17.2542 25.25 19.5C25.25 22.9125 24.0615 25.8073 21.6844 28.1844C19.3073 30.5615 16.4125 31.75 13 31.75ZM13 30C15.9167 30 18.3958 28.9792 20.4375 26.9375C22.4792 24.8958 23.5 22.4167 23.5 19.5C23.5 17.575 23.1719 15.5844 22.5156 13.5281C21.8594 11.4719 21.0135 9.59063 19.9781 7.88438C18.9427 6.17813 17.8052 4.77083 16.5656 3.6625C15.326 2.55417 14.1375 2 13 2C11.8625 2 10.674 2.54688 9.43437 3.64062C8.19479 4.73438 7.05729 6.13438 6.02187 7.84063C4.98646 9.54688 4.14062 11.4354 3.48438 13.5062C2.82812 15.5771 2.5 17.575 2.5 19.5C2.5 22.4167 3.52083 24.8958 5.5625 26.9375C7.60417 28.9792 10.0833 30 13 30ZM14.0938 26.4563C14.3562 26.4563 14.5677 26.3688 14.7281 26.1938C14.8885 26.0188 14.9688 25.8146 14.9688 25.5813C14.9688 25.3188 14.8885 25.1073 14.7281 24.9469C14.5677 24.7865 14.3562 24.7063 14.0938 24.7063C12.4021 24.7063 10.9583 24.1083 9.7625 22.9125C8.56667 21.7167 7.96875 20.2729 7.96875 18.5813C7.96875 18.3188 7.88854 18.1073 7.72813 17.9469C7.56771 17.7865 7.35625 17.7063 7.09375 17.7063C6.86042 17.7063 6.65625 17.7865 6.48125 17.9469C6.30625 18.1073 6.21875 18.3188 6.21875 18.5813C6.21875 20.7688 6.98438 22.6281 8.51562 24.1594C10.0469 25.6906 11.9062 26.4563 14.0938 26.4563Z" fill="black"/>
</svg>