<svg xmlns="http://www.w3.org/2000/svg" width="117" height="117" viewBox="0 0 117 117" fill="none">
  <g clip-path="url(#clip0_1820_4514)">
    <path d="M49.1156 67.8844C46.2719 65.0406 43.6719 62.0141 41.3156 58.8047C38.9594 55.5953 36.8469 52.1625 34.9781 48.5063C34.3281 50.1313 33.8406 51.7766 33.5156 53.4422C33.1906 55.1078 33.0281 56.7938 33.0281 58.5C33.0281 65.5687 35.5063 71.5813 40.4625 76.5375C45.4188 81.4938 51.4313 83.9719 58.5 83.9719C60.2063 83.9719 61.8719 83.8094 63.4969 83.4844C65.1219 83.1594 66.7469 82.6719 68.3719 82.0219C64.7156 80.1531 61.3031 78.0406 58.1344 75.6844C54.9656 73.3281 51.9594 70.7281 49.1156 67.8844ZM54.3563 62.7656C58.4188 66.8281 62.8672 70.3219 67.7016 73.2469C72.5359 76.1719 77.7562 78.4469 83.3625 80.0719C80.275 83.7281 76.5781 86.5312 72.2719 88.4813C67.9656 90.4313 63.4156 91.4062 58.6219 91.4062C49.5219 91.4062 41.7625 88.1969 35.3438 81.7781C28.925 75.3594 25.7156 67.6 25.7156 58.5C25.7156 53.7063 26.6906 49.1562 28.6406 44.85C30.5906 40.5438 33.3937 36.8469 37.05 33.7594C38.675 39.3656 40.95 44.5859 43.875 49.4203C46.8 54.2547 50.2938 58.7031 54.3563 62.7656ZM87.75 73.7344C86.5312 73.4094 85.3125 73.0641 84.0938 72.6984C82.875 72.3328 81.6969 71.9062 80.5594 71.4188C81.6969 69.4688 82.5703 67.3969 83.1797 65.2031C83.7891 63.0094 84.0938 60.775 84.0938 58.5C84.0938 51.35 81.6156 45.2969 76.6594 40.3406C71.7031 35.3844 65.65 32.9062 58.5 32.9062C56.225 32.9062 53.9906 33.2109 51.7969 33.8203C49.6031 34.4297 47.5312 35.3031 45.5812 36.4406C45.175 35.3031 44.7891 34.1453 44.4234 32.9672C44.0578 31.7891 43.7125 30.5906 43.3875 29.3719C45.7438 28.1531 48.2016 27.2188 50.7609 26.5688C53.3203 25.9188 55.9406 25.5938 58.6219 25.5938C67.7219 25.5938 75.4813 28.8031 81.9 35.2219C88.3188 41.6406 91.5281 49.4 91.5281 58.5C91.5281 61.1813 91.2031 63.8016 90.5531 66.3609C89.9031 68.9203 88.9688 71.3781 87.75 73.7344ZM54.8438 14.625V0H62.1562V14.625H54.8438ZM54.8438 117V102.375H62.1562V117H54.8438ZM92.1375 30.1031L86.8969 24.8625L97.2563 14.625L102.497 19.7437L92.1375 30.1031ZM19.7437 102.375L14.5031 97.2563L24.8625 86.8969L30.1031 92.1375L19.7437 102.375ZM102.375 62.1562V54.8438H117V62.1562H102.375ZM0 62.1562V54.8438H14.625V62.1562H0ZM97.2563 102.497L86.8969 92.1375L92.1375 86.8969L102.375 97.2563L97.2563 102.497ZM24.8625 30.1031L14.625 19.7437L19.7437 14.5031L30.1031 24.8625L24.8625 30.1031Z" fill="black"/>
  </g>
  <defs>
    <clipPath id="clip0_1820_4514">
      <rect width="117" height="117" fill="white"/>
    </clipPath>
  </defs>
</svg>