<svg xmlns="http://www.w3.org/2000/svg" width="117" height="117" viewBox="0 0 117 117" fill="none">
  <path d="M9.75 48.9938V44.1188C9.75 35.2625 14.0156 28.1328 22.5469 22.7297C31.0781 17.3266 43.0625 14.625 58.5 14.625C73.9375 14.625 85.9219 17.3266 94.4531 22.7297C102.984 28.1328 107.25 35.2625 107.25 44.1188V48.9938H9.75ZM17.3063 41.6813H99.6937C99.45 36.075 95.5297 31.3828 87.9328 27.6047C80.3359 23.8266 70.525 21.9375 58.5 21.9375C46.475 21.9375 36.6234 23.8266 28.9453 27.6047C21.2672 31.3828 17.3875 36.075 17.3063 41.6813ZM9.75 70.4438V63.1313C12.4313 63.1313 14.7672 62.2375 16.7578 60.45C18.7484 58.6625 21.9375 57.7687 26.325 57.7687C30.7125 57.7687 33.6172 58.6625 35.0391 60.45C36.4609 62.2375 38.8375 63.1313 42.1688 63.1313C45.5 63.1313 47.9578 62.2375 49.5422 60.45C51.1266 58.6625 54.1125 57.7687 58.5 57.7687C62.8875 57.7687 65.8734 58.6625 67.4578 60.45C69.0422 62.2375 71.5 63.1313 74.8313 63.1313C78.1625 63.1313 80.5391 62.2375 81.9609 60.45C83.3828 58.6625 86.2875 57.7687 90.675 57.7687C95.0625 57.7687 98.2516 58.6625 100.242 60.45C102.233 62.2375 104.569 63.1313 107.25 63.1313V70.4438C102.863 70.4438 99.8359 69.55 98.1703 67.7625C96.5047 65.975 94.0062 65.0813 90.675 65.0813C87.3438 65.0813 84.9672 65.975 83.5453 67.7625C82.1234 69.55 79.2188 70.4438 74.8313 70.4438C70.4438 70.4438 67.4578 69.55 65.8734 67.7625C64.2891 65.975 61.8313 65.0813 58.5 65.0813C55.1688 65.0813 52.7109 65.975 51.1266 67.7625C49.5422 69.55 46.5563 70.4438 42.1688 70.4438C37.7812 70.4438 34.8766 69.55 33.4547 67.7625C32.0328 65.975 29.6562 65.0813 26.325 65.0813C22.9938 65.0813 20.5011 65.975 18.8471 67.7625C17.1931 69.55 14.1607 70.4438 9.75 70.4438ZM17.0625 102.375C15.1125 102.375 13.4062 101.644 11.9438 100.181C10.4813 98.7188 9.75 97.0125 9.75 95.0625V79.4625H107.25V95.0625C107.25 97.0125 106.519 98.7188 105.056 100.181C103.594 101.644 101.888 102.375 99.9375 102.375H17.0625ZM17.0625 95.0625H99.9375V86.775H17.0625V95.0625Z" fill="black"/>
</svg>