<svg xmlns="http://www.w3.org/2000/svg" width="117" height="117" viewBox="0 0 117 117" fill="none">
  <path d="M39.1219 97.5C37.1719 97.5 35.4656 96.7688 34.0031 95.3063C32.5406 93.8438 31.8094 92.1375 31.8094 90.1875V78H46.9219V62.5219C43.8344 62.7656 40.7469 62.3391 37.6594 61.2422C34.5719 60.1453 31.8094 58.4188 29.3719 56.0625V48.9938H23.2781L7.3125 33.0281C10.2375 30.2656 13.7313 28.0109 17.7937 26.2641C21.8562 24.5172 26 23.6438 30.225 23.6438C32.6625 23.6438 35.4453 24.0297 38.5734 24.8016C41.7016 25.5734 44.4844 26.8125 46.9219 28.5188V19.5H102.375V84.7031C102.375 88.2781 101.136 91.3047 98.6578 93.7828C96.1797 96.2609 93.1531 97.5 89.5781 97.5H39.1219ZM54.2344 78H84.0938V84.7031C84.0938 86.3281 84.6016 87.6484 85.6172 88.6641C86.6328 89.6797 87.9531 90.1875 89.5781 90.1875C91.2031 90.1875 92.5234 89.6797 93.5391 88.6641C94.5547 87.6484 95.0625 86.3281 95.0625 84.7031V26.8125H54.2344V33.7594L83.6063 63.1313V68.3719H78.3656L63.0094 53.0156L60.9375 55.4531C59.8813 56.6719 58.825 57.6063 57.7688 58.2563C56.7125 58.9062 55.5344 59.5156 54.2344 60.0844V78ZM26.5688 41.6812H36.6844V52.5281C38.0656 53.4219 39.4266 54.0922 40.7672 54.5391C42.1078 54.9859 43.4688 55.2094 44.85 55.2094C46.8813 55.2094 48.9531 54.6609 51.0656 53.5641C53.1781 52.4672 54.7219 51.35 55.6969 50.2125L57.7688 47.775L49.3594 39.3656C46.7594 36.7656 43.8344 34.7141 40.5844 33.2109C37.3344 31.7078 33.8813 30.9563 30.225 30.9563C28.0312 30.9563 26.0406 31.2203 24.2531 31.7484C22.4656 32.2766 20.6375 32.9875 18.7688 33.8813L26.5688 41.6812ZM76.7812 85.3125H39.1219V90.1875H78.4875C78 89.7 77.5938 89.0297 77.2688 88.1766C76.9437 87.3234 76.7812 86.3688 76.7812 85.3125Z" fill="black"/>
</svg>