<svg width="138" height="138" viewBox="0 0 138 138" fill="none" xmlns="http://www.w3.org/2000/svg">
<g clip-path="url(#clip0_1664_4577)">
<path d="M40.2917 114.167C38.4515 114.167 36.8872 113.523 35.599 112.234C34.3108 110.946 33.6667 109.382 33.6667 107.542V59.6209C33.6667 57.7806 34.3108 56.2164 35.599 54.9282C36.8872 53.64 38.4515 52.9959 40.2917 52.9959H48.0209V42.3959C48.0209 36.5806 50.0636 31.6303 54.149 27.5449C58.2345 23.4595 63.1848 21.4167 69.0001 21.4167C74.8154 21.4167 79.7657 23.4595 83.8511 27.5449C87.9365 31.6303 89.9792 36.5806 89.9792 42.3959V52.9959H97.7084C99.5487 52.9959 101.113 53.64 102.401 54.9282C103.689 56.2164 104.333 57.7806 104.333 59.6209V107.542C104.333 109.382 103.689 110.946 102.401 112.234C101.113 113.523 99.5487 114.167 97.7084 114.167H40.2917ZM40.2917 107.542H97.7084V59.6209H40.2917V107.542ZM69.0001 92.0834C71.3556 92.0834 73.3615 91.2737 75.0178 89.6543C76.674 88.0348 77.5022 86.0841 77.5022 83.8022C77.5022 81.5938 76.674 79.5879 75.0178 77.7845C73.3615 75.981 71.3556 75.0792 69.0001 75.0792C66.6445 75.0792 64.6386 75.981 62.9824 77.7845C61.3261 79.5879 60.498 81.5938 60.498 83.8022C60.498 86.0841 61.3261 88.0348 62.9824 89.6543C64.6386 91.2737 66.6445 92.0834 69.0001 92.0834ZM54.6459 52.9959H83.3542V42.3959C83.3542 38.4209 81.9556 35.0348 79.1584 32.2376C76.3612 29.4404 72.9751 28.0417 69.0001 28.0417C65.0251 28.0417 61.639 29.4404 58.8417 32.2376C56.0445 35.0348 54.6459 38.4209 54.6459 42.3959V52.9959Z" fill="url(#paint0_linear_1664_4577)"/>
</g>
<circle cx="69" cy="69" r="65.5" stroke="url(#paint1_linear_1664_4577)" stroke-width="7"/>
<defs>
<linearGradient id="paint0_linear_1664_4577" x1="69.0001" y1="21.4167" x2="69.0001" y2="114.167" gradientUnits="userSpaceOnUse">
<stop stop-color="#091C26"/>
<stop offset="0.672554" stop-color="#1E5779"/>
</linearGradient>
<linearGradient id="paint1_linear_1664_4577" x1="69" y1="0" x2="69" y2="138" gradientUnits="userSpaceOnUse">
<stop stop-color="#091C26"/>
<stop offset="0.672554" stop-color="#1E5779"/>
</linearGradient>
<clipPath id="clip0_1664_4577">
<rect width="106" height="106" fill="white" transform="translate(16 14)"/>
</clipPath>
</defs>
</svg>
