<svg width="145" height="101" viewBox="0 0 145 101" fill="none" xmlns="http://www.w3.org/2000/svg">
<path d="M97.7021 63.701C106.087 71.5569 107.645 84.096 107.377 89.3836" stroke="#3297C1" stroke-width="5" stroke-linecap="round"/>
<path d="M88 76.5424C92.1922 80.4703 92.9716 86.7398 92.8372 89.3836" stroke="#3297C1" stroke-width="5" stroke-linecap="round"/>
<path d="M107.405 53C120.018 64.1291 122.362 81.8929 121.958 89.3836" stroke="#3297C1" stroke-width="5" stroke-linecap="round"/>
<path d="M12.4 37.5C10.2333 37.5 8.23333 37.25 6.4 36.75C4.6 36.2167 3.08333 35.4833 1.85 34.55L3.6 30.35C4.86667 31.2167 6.26667 31.8833 7.8 32.35C9.33333 32.8167 10.8833 33.05 12.45 33.05C14.1167 33.05 15.35 32.7667 16.15 32.2C16.9833 31.6333 17.4 30.8667 17.4 29.9C17.4 29.1333 17.1333 28.5333 16.6 28.1C16.1 27.6333 15.2833 27.2833 14.15 27.05L9.15 26.1C7.01667 25.6333 5.38333 24.8333 4.25 23.7C3.15 22.5667 2.6 21.0833 2.6 19.25C2.6 17.6833 3.01667 16.3 3.85 15.1C4.71667 13.9 5.93333 12.9667 7.5 12.3C9.1 11.6 10.9667 11.25 13.1 11.25C14.9667 11.25 16.7167 11.5 18.35 12C20.0167 12.5 21.4167 13.25 22.55 14.25L20.75 18.3C19.7167 17.4667 18.5333 16.8167 17.2 16.35C15.8667 15.8833 14.5667 15.65 13.3 15.65C11.5667 15.65 10.3 15.9667 9.5 16.6C8.7 17.2 8.3 17.9833 8.3 18.95C8.3 19.6833 8.53333 20.3 9 20.8C9.5 21.2667 10.2667 21.6167 11.3 21.85L16.3 22.8C18.5333 23.2333 20.2167 24 21.35 25.1C22.5167 26.1667 23.1 27.6333 23.1 29.5C23.1 31.1667 22.65 32.6 21.75 33.8C20.85 35 19.6 35.9167 18 36.55C16.4 37.1833 14.5333 37.5 12.4 37.5ZM28.7488 47.8V18.05C28.7488 17.0167 28.7155 15.9667 28.6488 14.9C28.5822 13.8333 28.4822 12.7833 28.3488 11.75H34.3988L34.9488 17.05H34.3988C34.8988 15.2833 35.9488 13.8833 37.5488 12.85C39.1822 11.7833 41.0655 11.25 43.1988 11.25C45.4322 11.25 47.3822 11.7833 49.0488 12.85C50.7155 13.8833 52.0155 15.3833 52.9488 17.35C53.8822 19.2833 54.3488 21.6167 54.3488 24.35C54.3488 27.0833 53.8822 29.4333 52.9488 31.4C52.0155 33.3667 50.7155 34.8833 49.0488 35.95C47.3822 36.9833 45.4322 37.5 43.1988 37.5C41.0988 37.5 39.2488 36.9833 37.6488 35.95C36.0488 34.9167 34.9822 33.5333 34.4488 31.8H34.9988V47.8H28.7488ZM41.4488 32.7C43.4488 32.7 45.0488 32.0167 46.2488 30.65C47.4488 29.25 48.0488 27.15 48.0488 24.35C48.0488 21.55 47.4488 19.4667 46.2488 18.1C45.0488 16.7333 43.4488 16.05 41.4488 16.05C39.4822 16.05 37.8988 16.7333 36.6988 18.1C35.4988 19.4667 34.8988 21.55 34.8988 24.35C34.8988 27.15 35.4988 29.25 36.6988 30.65C37.8988 32.0167 39.4822 32.7 41.4488 32.7ZM72.2547 37.5C68.0214 37.5 64.7047 36.3333 62.3047 34C59.9047 31.6667 58.7047 28.4667 58.7047 24.4C58.7047 21.7667 59.2214 19.4667 60.2547 17.5C61.288 15.5333 62.7214 14 64.5547 12.9C66.4214 11.8 68.588 11.25 71.0547 11.25C73.488 11.25 75.5214 11.7667 77.1547 12.8C78.788 13.8333 80.0214 15.2833 80.8547 17.15C81.7214 19.0167 82.1547 21.2 82.1547 23.7V25.35H63.7547V22.05H77.7047L76.8547 22.75C76.8547 20.4167 76.3547 18.6333 75.3547 17.4C74.388 16.1667 72.9714 15.55 71.1047 15.55C69.038 15.55 67.438 16.2833 66.3047 17.75C65.2047 19.2167 64.6547 21.2667 64.6547 23.9V24.55C64.6547 27.2833 65.3214 29.3333 66.6547 30.7C68.0214 32.0333 69.938 32.7 72.4047 32.7C73.838 32.7 75.1714 32.5167 76.4047 32.15C77.6714 31.75 78.8714 31.1167 80.0047 30.25L81.8547 34.45C80.6547 35.4167 79.2214 36.1667 77.5547 36.7C75.888 37.2333 74.1214 37.5 72.2547 37.5ZM97.4973 37.5C95.2973 37.5 93.3639 36.9833 91.6973 35.95C90.0306 34.8833 88.7306 33.3667 87.7973 31.4C86.8639 29.4333 86.3973 27.0833 86.3973 24.35C86.3973 21.6167 86.8639 19.2833 87.7973 17.35C88.7306 15.3833 90.0306 13.8833 91.6973 12.85C93.3639 11.7833 95.2973 11.25 97.4973 11.25C99.6306 11.25 101.497 11.7833 103.097 12.85C104.731 13.8833 105.814 15.2833 106.347 17.05H105.797L106.347 11.75H112.347C112.247 12.7833 112.147 13.8333 112.047 14.9C111.981 15.9667 111.947 17.0167 111.947 18.05V37H105.747L105.697 31.8H106.297C105.764 33.5333 104.681 34.9167 103.047 35.95C101.414 36.9833 99.5639 37.5 97.4973 37.5ZM99.2473 32.7C101.214 32.7 102.797 32.0167 103.997 30.65C105.197 29.25 105.797 27.15 105.797 24.35C105.797 21.55 105.197 19.4667 103.997 18.1C102.797 16.7333 101.214 16.05 99.2473 16.05C97.2806 16.05 95.6973 16.7333 94.4973 18.1C93.2973 19.4667 92.6973 21.55 92.6973 24.35C92.6973 27.15 93.2806 29.25 94.4473 30.65C95.6473 32.0167 97.2473 32.7 99.2473 32.7ZM119.053 37V0.199997H125.303V22.5H125.403L135.653 11.75H143.203L130.453 25.1L130.503 22.6L144.103 37H136.353L125.403 25.7H125.303V37H119.053Z" fill="black"/>
<path d="M12.5 90.5C9.4 90.5 7.08333 89.65 5.55 87.95C4.01667 86.25 3.25 83.65 3.25 80.15V64.75H9.5V80.1C9.5 81.9667 9.88333 83.35 10.65 84.25C11.4167 85.1167 12.5833 85.55 14.15 85.55C15.9167 85.55 17.35 84.95 18.45 83.75C19.5833 82.55 20.15 80.9667 20.15 79V64.75H26.4V90H20.3V84.85H21C20.2667 86.65 19.15 88.05 17.65 89.05C16.1833 90.0167 14.4667 90.5 12.5 90.5ZM33.4852 100.8V71.05C33.4852 70.0167 33.4518 68.9667 33.3852 67.9C33.3185 66.8333 33.2185 65.7833 33.0852 64.75H39.1352L39.6852 70.05H39.1352C39.6352 68.2833 40.6852 66.8833 42.2852 65.85C43.9185 64.7833 45.8018 64.25 47.9352 64.25C50.1685 64.25 52.1185 64.7833 53.7852 65.85C55.4518 66.8833 56.7518 68.3833 57.6852 70.35C58.6185 72.2833 59.0852 74.6167 59.0852 77.35C59.0852 80.0833 58.6185 82.4333 57.6852 84.4C56.7518 86.3667 55.4518 87.8833 53.7852 88.95C52.1185 89.9833 50.1685 90.5 47.9352 90.5C45.8352 90.5 43.9852 89.9833 42.3852 88.95C40.7852 87.9167 39.7185 86.5333 39.1852 84.8H39.7352V100.8H33.4852ZM46.1852 85.7C48.1852 85.7 49.7852 85.0167 50.9852 83.65C52.1852 82.25 52.7852 80.15 52.7852 77.35C52.7852 74.55 52.1852 72.4667 50.9852 71.1C49.7852 69.7333 48.1852 69.05 46.1852 69.05C44.2185 69.05 42.6352 69.7333 41.4352 71.1C40.2352 72.4667 39.6352 74.55 39.6352 77.35C39.6352 80.15 40.2352 82.25 41.4352 83.65C42.6352 85.0167 44.2185 85.7 46.1852 85.7Z" fill="black"/>
</svg>
