<svg width="203" height="63" viewBox="0 0 203 63" fill="none" xmlns="http://www.w3.org/2000/svg">
<path d="M175.702 13.7012C184.087 21.557 185.645 34.0961 185.377 39.3837" stroke="#3297C1" stroke-width="5" stroke-linecap="round"/>
<path d="M166 26.5425C170.192 30.4704 170.972 36.74 170.837 39.3837" stroke="#3297C1" stroke-width="5" stroke-linecap="round"/>
<path d="M185.405 3C198.018 14.1291 200.362 31.8929 199.958 39.3836" stroke="#3297C1" stroke-width="5" stroke-linecap="round"/>
<path d="M8.928 53.36C7.368 53.36 5.928 53.18 4.608 52.82C3.312 52.436 2.22 51.908 1.332 51.236L2.592 48.212C3.504 48.836 4.512 49.316 5.616 49.652C6.72 49.988 7.836 50.156 8.964 50.156C10.164 50.156 11.052 49.952 11.628 49.544C12.228 49.136 12.528 48.584 12.528 47.888C12.528 47.336 12.336 46.904 11.952 46.592C11.592 46.256 11.004 46.004 10.188 45.836L6.588 45.152C5.052 44.816 3.876 44.24 3.06 43.424C2.268 42.608 1.872 41.54 1.872 40.22C1.872 39.092 2.172 38.096 2.772 37.232C3.396 36.368 4.272 35.696 5.4 35.216C6.552 34.712 7.896 34.46 9.432 34.46C10.776 34.46 12.036 34.64 13.212 35C14.412 35.36 15.42 35.9 16.236 36.62L14.94 39.536C14.196 38.936 13.344 38.468 12.384 38.132C11.424 37.796 10.488 37.628 9.576 37.628C8.328 37.628 7.416 37.856 6.84 38.312C6.264 38.744 5.976 39.308 5.976 40.004C5.976 40.532 6.144 40.976 6.48 41.336C6.84 41.672 7.392 41.924 8.136 42.092L11.736 42.776C13.344 43.088 14.556 43.64 15.372 44.432C16.212 45.2 16.632 46.256 16.632 47.6C16.632 48.8 16.308 49.832 15.66 50.696C15.012 51.56 14.112 52.22 12.96 52.676C11.808 53.132 10.464 53.36 8.928 53.36ZM20.7832 60.776V39.356C20.7832 38.612 20.7592 37.856 20.7112 37.088C20.6632 36.32 20.5912 35.564 20.4952 34.82H24.8512L25.2472 38.636H24.8512C25.2112 37.364 25.9672 36.356 27.1192 35.612C28.2952 34.844 29.6512 34.46 31.1872 34.46C32.7952 34.46 34.1992 34.844 35.3992 35.612C36.5992 36.356 37.5352 37.436 38.2072 38.852C38.8792 40.244 39.2152 41.924 39.2152 43.892C39.2152 45.86 38.8792 47.552 38.2072 48.968C37.5352 50.384 36.5992 51.476 35.3992 52.244C34.1992 52.988 32.7952 53.36 31.1872 53.36C29.6752 53.36 28.3432 52.988 27.1912 52.244C26.0392 51.5 25.2712 50.504 24.8872 49.256H25.2832V60.776H20.7832ZM29.9272 49.904C31.3672 49.904 32.5192 49.412 33.3832 48.428C34.2472 47.42 34.6792 45.908 34.6792 43.892C34.6792 41.876 34.2472 40.376 33.3832 39.392C32.5192 38.408 31.3672 37.916 29.9272 37.916C28.5112 37.916 27.3712 38.408 26.5072 39.392C25.6432 40.376 25.2112 41.876 25.2112 43.892C25.2112 45.908 25.6432 47.42 26.5072 48.428C27.3712 49.412 28.5112 49.904 29.9272 49.904ZM52.1914 53.36C49.1434 53.36 46.7554 52.52 45.0274 50.84C43.2994 49.16 42.4354 46.856 42.4354 43.928C42.4354 42.032 42.8074 40.376 43.5514 38.96C44.2954 37.544 45.3274 36.44 46.6474 35.648C47.9914 34.856 49.5514 34.46 51.3274 34.46C53.0794 34.46 54.5434 34.832 55.7194 35.576C56.8954 36.32 57.7834 37.364 58.3834 38.708C59.0074 40.052 59.3194 41.624 59.3194 43.424V44.612H46.0714V42.236H56.1154L55.5034 42.74C55.5034 41.06 55.1434 39.776 54.4234 38.888C53.7274 38 52.7074 37.556 51.3634 37.556C49.8754 37.556 48.7234 38.084 47.9074 39.14C47.1154 40.196 46.7194 41.672 46.7194 43.568V44.036C46.7194 46.004 47.1994 47.48 48.1594 48.464C49.1434 49.424 50.5234 49.904 52.2994 49.904C53.3314 49.904 54.2914 49.772 55.1794 49.508C56.0914 49.22 56.9554 48.764 57.7714 48.14L59.1034 51.164C58.2394 51.86 57.2074 52.4 56.0074 52.784C54.8074 53.168 53.5354 53.36 52.1914 53.36ZM70.45 53.36C68.866 53.36 67.474 52.988 66.274 52.244C65.074 51.476 64.138 50.384 63.466 48.968C62.794 47.552 62.458 45.86 62.458 43.892C62.458 41.924 62.794 40.244 63.466 38.852C64.138 37.436 65.074 36.356 66.274 35.612C67.474 34.844 68.866 34.46 70.45 34.46C71.986 34.46 73.33 34.844 74.482 35.612C75.658 36.356 76.438 37.364 76.822 38.636H76.426L76.822 34.82H81.142C81.07 35.564 80.998 36.32 80.926 37.088C80.878 37.856 80.854 38.612 80.854 39.356V53H76.39L76.354 49.256H76.786C76.402 50.504 75.622 51.5 74.446 52.244C73.27 52.988 71.938 53.36 70.45 53.36ZM71.71 49.904C73.126 49.904 74.266 49.412 75.13 48.428C75.994 47.42 76.426 45.908 76.426 43.892C76.426 41.876 75.994 40.376 75.13 39.392C74.266 38.408 73.126 37.916 71.71 37.916C70.294 37.916 69.154 38.408 68.29 39.392C67.426 40.376 66.994 41.876 66.994 43.892C66.994 45.908 67.414 47.42 68.254 48.428C69.118 49.412 70.27 49.904 71.71 49.904ZM86.0542 53V26.504H90.5542V42.56H90.6262L98.0062 34.82H103.442L94.2622 44.432L94.2982 42.632L104.09 53H98.5102L90.6262 44.864H90.5542V53H86.0542ZM122.948 53.36C120.716 53.36 119.048 52.748 117.944 51.524C116.84 50.3 116.288 48.428 116.288 45.908V34.82H120.788V45.872C120.788 47.216 121.064 48.212 121.616 48.86C122.168 49.484 123.008 49.796 124.136 49.796C125.408 49.796 126.44 49.364 127.232 48.5C128.048 47.636 128.456 46.496 128.456 45.08V34.82H132.956V53H128.564V49.292H129.068C128.54 50.588 127.736 51.596 126.656 52.316C125.6 53.012 124.364 53.36 122.948 53.36ZM138.142 60.776V39.356C138.142 38.612 138.118 37.856 138.07 37.088C138.022 36.32 137.95 35.564 137.854 34.82H142.21L142.606 38.636H142.21C142.57 37.364 143.326 36.356 144.478 35.612C145.654 34.844 147.01 34.46 148.546 34.46C150.154 34.46 151.558 34.844 152.758 35.612C153.958 36.356 154.894 37.436 155.566 38.852C156.238 40.244 156.574 41.924 156.574 43.892C156.574 45.86 156.238 47.552 155.566 48.968C154.894 50.384 153.958 51.476 152.758 52.244C151.558 52.988 150.154 53.36 148.546 53.36C147.034 53.36 145.702 52.988 144.55 52.244C143.398 51.5 142.63 50.504 142.246 49.256H142.642V60.776H138.142ZM147.286 49.904C148.726 49.904 149.878 49.412 150.742 48.428C151.606 47.42 152.038 45.908 152.038 43.892C152.038 41.876 151.606 40.376 150.742 39.392C149.878 38.408 148.726 37.916 147.286 37.916C145.87 37.916 144.73 38.408 143.866 39.392C143.002 40.376 142.57 41.876 142.57 43.892C142.57 45.908 143.002 47.42 143.866 48.428C144.73 49.412 145.87 49.904 147.286 49.904Z" fill="#373F41"/>
</svg>
