<svg width="138" height="138" viewBox="0 0 138 138" fill="none" xmlns="http://www.w3.org/2000/svg">
<path d="M39.4 48.8C38.4667 47.8 37.8333 46.6667 37.5 45.4C37.1667 44.1333 37 42.8333 37 41.5C37 38.3 38.1 35.5833 40.3 33.35C42.5 31.1167 45.2 30 48.4 30C51.6 30 54.3 31.1167 56.5 33.35C58.7 35.5833 59.8 38.3 59.8 41.5C59.8 42.8333 59.6333 44.1333 59.3 45.4C58.9667 46.6667 58.3333 47.8 57.4 48.8H39.4ZM60.6 110C56.3333 110 52.6833 108.5 49.65 105.5C46.6167 102.5 45.1 98.8333 45.1 94.5H41.7L37.7 52.9H59.1L55.1 94.5H51.1C51.1 97.1 52.0333 99.3333 53.9 101.2C55.7667 103.067 58 104 60.6 104C63.2 104 65.4167 103.067 67.25 101.2C69.0833 99.3333 70 97.1 70 94.5V45.5C70 41.1667 71.5 37.5 74.5 34.5C77.5 31.5 81.1667 30 85.5 30C89.8333 30 93.5 31.5 96.5 34.5C99.5 37.5 101 41.1667 101 45.5V110H95V45.5C95 42.9 94.0667 40.6667 92.2 38.8C90.3333 36.9333 88.1 36 85.5 36C82.9 36 80.6667 36.9333 78.8 38.8C76.9333 40.6667 76 42.9 76 45.5V94.5C76 98.8333 74.5 102.5 71.5 105.5C68.5 108.5 64.8667 110 60.6 110ZM47.1 88.5H49.7L52.5 58.9H44.3L47.1 88.5ZM49.7 58.9H44.3H52.5H49.7Z" fill="url(#paint0_linear_1664_4565)"/>
<circle cx="69" cy="69" r="65.5" stroke="url(#paint1_linear_1664_4565)" stroke-width="7"/>
<defs>
<linearGradient id="paint0_linear_1664_4565" x1="69" y1="30" x2="69" y2="110" gradientUnits="userSpaceOnUse">
<stop stop-color="#091C26"/>
<stop offset="0.672554" stop-color="#1E5779"/>
</linearGradient>
<linearGradient id="paint1_linear_1664_4565" x1="69" y1="0" x2="69" y2="138" gradientUnits="userSpaceOnUse">
<stop stop-color="#091C26"/>
<stop offset="0.672554" stop-color="#1E5779"/>
</linearGradient>
</defs>
</svg>
