<svg xmlns="http://www.w3.org/2000/svg" width="100%" height="100%" viewBox="0 0 100 100" fill="none">
  <path d="M8.0625 0.5L17.0813 19.025H32.925L23.9062 0.5H34.7531L43.7719 19.025H59.6156L50.5969 0.5H61.4438L70.4625 19.025H86.3063L77.2875 0.5H90.9375C92.8875 0.5 94.5938 1.23125 96.0563 2.69375C97.5188 4.15625 98.25 5.8625 98.25 7.8125V71.1875C98.25 73.1375 97.5188 74.8438 96.0563 76.3063C94.5938 77.7688 92.8875 78.5 90.9375 78.5H8.0625C6.1125 78.5 4.40625 77.7688 2.94375 76.3063C1.48125 74.8438 0.75 73.1375 0.75 71.1875V7.8125C0.75 5.8625 1.48125 4.15625 2.94375 2.69375C4.40625 1.23125 6.1125 0.5 8.0625 0.5ZM8.0625 26.3375V71.1875H90.9375V26.3375H8.0625Z" fill="black"/>
</svg>