<svg xmlns="http://www.w3.org/2000/svg" width="117" height="117" viewBox="0 0 117 117" fill="none">
  <path d="M94.2094 34.6125C95.3144 34.6125 96.2406 34.2063 96.9881 33.3938C97.7356 32.5813 98.1094 31.6875 98.1094 30.7125C98.1094 29.6075 97.7356 28.6813 96.9881 27.9338C96.2406 27.1863 95.3144 26.8125 94.2094 26.8125C93.1044 26.8125 92.1781 27.1863 91.4306 27.9338C90.6831 28.6813 90.3094 29.6075 90.3094 30.7125C90.3094 31.6875 90.6831 32.5813 91.4306 33.3938C92.1781 34.2063 93.1044 34.6125 94.2094 34.6125ZM73.2469 34.6125C74.3519 34.6125 75.2781 34.2063 76.0256 33.3938C76.7731 32.5813 77.1469 31.6875 77.1469 30.7125C77.1469 29.6075 76.7731 28.6813 76.0256 27.9338C75.2781 27.1863 74.3519 26.8125 73.2469 26.8125C72.1419 26.8125 71.2156 27.1863 70.4681 27.9338C69.7206 28.6813 69.3469 29.6075 69.3469 30.7125C69.3469 31.6875 69.7206 32.5813 70.4681 33.3938C71.2156 34.2063 72.1419 34.6125 73.2469 34.6125ZM70.5656 52.4062H96.6469C96.6469 49.725 95.3063 47.6328 92.625 46.1297C89.9437 44.6266 86.9375 43.875 83.6063 43.875C80.275 43.875 77.2688 44.6266 74.5875 46.1297C71.9062 47.6328 70.5656 49.725 70.5656 52.4062ZM33.3938 107.128C25.4719 107.128 18.7383 104.284 13.193 98.5969C7.64766 92.9094 4.875 86.2469 4.875 78.6094V46.0688H61.9125V78.6094C61.9125 86.2469 59.1398 92.9094 53.5945 98.5969C48.0492 104.284 41.3156 107.128 33.3938 107.128ZM33.4131 99.8156C39.2502 99.8156 44.2406 97.6828 48.3844 93.4172C52.5281 89.1516 54.6 84.2156 54.6 78.6094V53.3813H12.1875V78.6094C12.1875 84.2156 14.2658 89.1516 18.4225 93.4172C22.5793 97.6828 27.5761 99.8156 33.4131 99.8156ZM83.6063 70.8094C80.8438 70.8094 78.1625 70.4641 75.5625 69.7734C72.9625 69.0828 70.4844 68.0875 68.1281 66.7875V58.6219C70.2406 59.8406 72.6172 60.9578 75.2578 61.9734C77.8984 62.9891 80.6813 63.4969 83.6063 63.4969C89.438 63.4969 94.4303 61.5469 98.5832 57.6469C102.736 53.7469 104.812 48.9938 104.812 43.3875V17.0625H62.0344V40.0969H54.7219V9.75H112.125V43.3875C112.125 50.9438 109.352 57.4031 103.807 62.7656C98.2617 68.1281 91.5281 70.8094 83.6063 70.8094ZM23.0344 69.9563C24.1394 69.9563 25.0656 69.5825 25.8131 68.835C26.5606 68.0875 26.9344 67.1613 26.9344 66.0563C26.9344 64.9513 26.5606 64.025 25.8131 63.2775C25.0656 62.53 24.1394 62.1562 23.0344 62.1562C21.9294 62.1562 21.0031 62.53 20.2556 63.2775C19.5081 64.025 19.1344 64.9513 19.1344 66.0563C19.1344 67.1613 19.5081 68.0875 20.2556 68.835C21.0031 69.5825 21.9294 69.9563 23.0344 69.9563ZM44.1188 69.9563C45.2238 69.9563 46.15 69.5825 46.8975 68.835C47.645 68.0875 48.0187 67.1613 48.0187 66.0563C48.0187 64.9513 47.645 64.025 46.8975 63.2775C46.15 62.53 45.2238 62.1562 44.1188 62.1562C43.0138 62.1562 42.0875 62.53 41.34 63.2775C40.5925 64.025 40.2188 64.9513 40.2188 66.0563C40.2188 67.1613 40.5925 68.0875 41.34 68.835C42.0875 69.5825 43.0138 69.9563 44.1188 69.9563ZM33.7594 88.8469C37.0906 88.8469 40.0969 88.0953 42.7781 86.5922C45.4594 85.0891 46.8 82.9969 46.8 80.3156H20.7188C20.7188 82.9969 22.0594 85.0891 24.7406 86.5922C27.4219 88.0953 30.4281 88.8469 33.7594 88.8469Z" fill="black"/>
</svg>