<svg width="29" height="29" viewBox="0 0 29 29" fill="none" xmlns="http://www.w3.org/2000/svg">
<path d="M25.9007 22.7853C25.1881 22.1028 24.4945 21.4006 23.8208 20.6797C23.2548 20.1047 22.914 19.6863 22.914 19.6863L18.6537 17.6522C20.3593 15.718 21.3006 13.2281 21.3012 10.6495C21.3012 4.77856 16.5236 0 10.6506 0C4.77754 0 0 4.77856 0 10.6495C0 16.5204 4.77754 21.2989 10.6506 21.2989C13.333 21.2989 15.7781 20.2948 17.6541 18.6533L19.6884 22.9131C19.6884 22.9131 20.1068 23.2539 20.6819 23.8198C21.2707 24.372 22.0452 25.119 22.7877 25.8995L24.8539 28.0172L25.7729 29L29 25.7732L28.0171 24.8543C27.4405 24.2884 26.6706 23.5368 25.9007 22.7853ZM10.6506 18.2562C6.45577 18.2562 3.04302 14.8438 3.04302 10.6495C3.04302 6.45509 6.45577 3.0427 10.6506 3.0427C14.8454 3.0427 18.2581 6.45509 18.2581 10.6495C18.2581 14.8438 14.8454 18.2562 10.6506 18.2562Z" fill="white"/>
</svg>
