<svg xmlns="http://www.w3.org/2000/svg" width="117" height="117" viewBox="0 0 117 117" fill="none">
  <path d="M58.5 107.25C51.8375 107.25 45.5406 105.97 39.6094 103.411C33.6781 100.852 28.4984 97.3578 24.0703 92.9297C19.6422 88.5016 16.1484 83.3219 13.5891 77.3906C11.0297 71.4594 9.75 65.1625 9.75 58.5C9.75 51.7563 11.0297 45.4391 13.5891 39.5484C16.1484 33.6578 19.6422 28.4984 24.0703 24.0703C28.4984 19.6422 33.6781 16.1484 39.6094 13.5891C45.5406 11.0297 51.8375 9.75 58.5 9.75C65.2438 9.75 71.5609 11.0297 77.4516 13.5891C83.3422 16.1484 88.5016 19.6422 92.9297 24.0703C97.3578 28.4984 100.852 33.6578 103.411 39.5484C105.97 45.4391 107.25 51.7563 107.25 58.5C107.25 65.1625 105.97 71.4594 103.411 77.3906C100.852 83.3219 97.3578 88.5016 92.9297 92.9297C88.5016 97.3578 83.3422 100.852 77.4516 103.411C71.5609 105.97 65.2438 107.25 58.5 107.25ZM83.4844 47.1656L91.8938 44.2406L94.0875 36.4406C91.325 32.1344 87.9125 28.4578 83.85 25.4109C79.7875 22.3641 75.1969 20.0281 70.0781 18.4031L62.1562 23.6438V32.175L83.4844 47.1656ZM33.6375 47.1656L54.8438 32.175V23.6438L47.0438 18.4031C41.925 20.0281 37.3344 22.3641 33.2719 25.4109C29.2094 28.4578 25.7969 32.1344 23.0344 36.4406L25.7156 44.2406L33.6375 47.1656ZM27.0562 86.1656L34.3688 85.3125L39.1219 77.3906L31.5656 54.1125L22.9125 51.1875L17.0625 55.9406C17.0625 61.7906 17.7125 67.1328 19.0125 71.9672C20.3125 76.8016 22.9938 81.5344 27.0562 86.1656ZM58.5 99.9375C60.6938 99.9375 62.9078 99.7344 65.1422 99.3281C67.3766 98.9219 69.7125 98.3938 72.15 97.7438L76.1719 88.9688L72.2719 82.2656H44.85L40.95 88.9688L44.9719 97.7438C47.0844 98.3938 49.3188 98.9219 51.675 99.3281C54.0312 99.7344 56.3063 99.9375 58.5 99.9375ZM45.5812 74.9531H70.9313L78.3656 52.65L58.5 38.3906L38.2688 52.65L45.5812 74.9531ZM90.0656 86.1656C94.0469 81.5344 96.6875 76.8016 97.9875 71.9672C99.2875 67.1328 99.9375 61.7906 99.9375 55.9406L94.0875 51.9188L85.5563 54.1125L78 77.3906L82.6312 85.3125L90.0656 86.1656Z" fill="black"/>
</svg>