<svg xmlns="http://www.w3.org/2000/svg" width="117" height="117" viewBox="0 0 117 117" fill="none">
  <path d="M40.2188 102.375V92.625H17.0625C15.1125 92.625 13.4062 91.8938 11.9438 90.4313C10.4813 88.9688 9.75 87.2625 9.75 85.3125V21.9375C9.75 19.9875 10.4813 18.2812 11.9438 16.8188C13.4062 15.3563 15.1125 14.625 17.0625 14.625H99.9375C101.888 14.625 103.594 15.3563 105.056 16.8188C106.519 18.2812 107.25 19.9875 107.25 21.9375V85.3125C107.25 87.2625 106.519 88.9688 105.056 90.4313C103.594 91.8938 101.888 92.625 99.9375 92.625H76.7812V102.375H40.2188ZM17.0625 85.3125H99.9375V21.9375H17.0625V85.3125Z" fill="black"/>
</svg>