<svg width="302" height="70" viewBox="0 0 302 70" fill="none" xmlns="http://www.w3.org/2000/svg">
<path d="M105 6.3C105 4.47746 103.657 3 102 3C100.343 3 99 4.47746 99 6.3V65.7C99 67.5225 100.343 69 102 69C103.657 69 105 67.5225 105 65.7V6.3Z" fill="white"/>
<path d="M93 22.4167C93 20.5297 91.6569 19 90 19C88.3431 19 87 20.5297 87 22.4167V56.5833C87 58.4703 88.3431 60 90 60C91.6569 60 93 58.4703 93 56.5833V22.4167Z" fill="white"/>
<path d="M117 12.3333C117 10.4924 115.657 9 114 9C112.343 9 111 10.4924 111 12.3333V59.6667C111 61.5076 112.343 63 114 63C115.657 63 117 61.5076 117 59.6667V12.3333Z" fill="white"/>
<path d="M142 19.3333C142 17.4924 140.657 16 139 16C137.343 16 136 17.4924 136 19.3333V52.6667C136 54.5076 137.343 56 139 56C140.657 56 142 54.5076 142 52.6667V19.3333Z" fill="white"/>
<path d="M130 3.35C130 1.49985 128.433 0 126.5 0C124.567 0 123 1.49985 123 3.35V63.65C123 65.5002 124.567 67 126.5 67C128.433 67 130 65.5002 130 63.65V3.35Z" fill="white"/>
<path d="M154 27.3929C154 25.519 152.657 24 151 24C149.343 24 148 25.519 148 27.3929V39.6071C148 41.481 149.343 43 151 43C152.657 43 154 41.481 154 39.6071V27.3929Z" fill="white"/>
<path d="M167 19.4C167 17.5222 165.433 16 163.5 16C161.567 16 160 17.5222 160 19.4V46.6C160 48.4778 161.567 50 163.5 50C165.433 50 167 48.4778 167 46.6V19.4Z" fill="white"/>
<path d="M192 19.3571C192 17.503 190.657 16 189 16C187.343 16 186 17.503 186 19.3571V59.6429C186 61.497 187.343 63 189 63C190.657 63 192 61.497 192 59.6429V19.3571Z" fill="white"/>
<path d="M180 3.35C180 1.49985 178.433 0 176.5 0C174.567 0 173 1.49985 173 3.35V63.65C173 65.5002 174.567 67 176.5 67C178.433 67 180 65.5002 180 63.65V3.35Z" fill="white"/>
<path d="M204 6.35C204 4.49985 202.657 3 201 3C199.343 3 198 4.49985 198 6.35V66.65C198 68.5002 199.343 70 201 70C202.657 70 204 68.5002 204 66.65V6.35Z" fill="white"/>
<path d="M217 19.3333C217 17.4924 215.433 16 213.5 16C211.567 16 210 17.4924 210 19.3333V52.6667C210 54.5076 211.567 56 213.5 56C215.433 56 217 54.5076 217 52.6667V19.3333Z" fill="white"/>
<path d="M253 13.3333C253 11.4924 251.657 10 250 10C248.343 10 247 11.4924 247 13.3333V60.6667C247 62.5076 248.343 64 250 64C251.657 64 253 62.5076 253 60.6667V13.3333Z" fill="white"/>
<path d="M266 23.375C266 21.511 264.657 20 263 20C261.343 20 260 21.511 260 23.375V43.625C260 45.489 261.343 47 263 47C264.657 47 266 45.489 266 43.625V23.375Z" fill="white"/>
<path d="M278 3.35C278 1.49985 276.657 0 275 0C273.343 0 272 1.49985 272 3.35V63.65C272 65.5002 273.343 67 275 67C276.657 67 278 65.5002 278 63.65V3.35Z" fill="white"/>
<path d="M68 28.3333C68 26.4924 66.6569 25 65 25C63.3431 25 62 26.4924 62 28.3333V41.6667C62 43.5076 63.3431 45 65 45C66.6569 45 68 43.5076 68 41.6667V28.3333Z" fill="white"/>
<path d="M80 4.35C80 2.49985 78.6569 1 77 1C75.3431 1 74 2.49985 74 4.35V64.65C74 66.5002 75.3431 68 77 68C78.6569 68 80 66.5002 80 64.65V4.35Z" fill="white"/>
<path d="M241 3.35C241 1.49985 239.657 0 238 0C236.343 0 235 1.49985 235 3.35V63.65C235 65.5002 236.343 67 238 67C239.657 67 241 65.5002 241 63.65V3.35Z" fill="white"/>
<path d="M229 19.3333C229 17.4924 227.657 16 226 16C224.343 16 223 17.4924 223 19.3333V52.6667C223 54.5076 224.343 56 226 56C227.657 56 229 54.5076 229 52.6667V19.3333Z" fill="white"/>
<path d="M290 19.3333C290 17.4924 288.657 16 287 16C285.343 16 284 17.4924 284 19.3333V52.6667C284 54.5076 285.343 56 287 56C288.657 56 290 54.5076 290 52.6667V19.3333Z" fill="white"/>
<path d="M302 27.3929C302 25.519 300.657 24 299 24C297.343 24 296 25.519 296 27.3929V39.6071C296 41.481 297.343 43 299 43C300.657 43 302 41.481 302 39.6071V27.3929Z" fill="white"/>
<path d="M7 19.3333C7 17.4924 5.433 16 3.5 16C1.567 16 0 17.4924 0 19.3333V52.6667C0 54.5076 1.567 56 3.5 56C5.433 56 7 54.5076 7 52.6667V19.3333Z" fill="white"/>
<path d="M43 13.3333C43 11.4924 41.6569 10 40 10C38.3431 10 37 11.4924 37 13.3333V60.6667C37 62.5076 38.3431 64 40 64C41.6569 64 43 62.5076 43 60.6667V13.3333Z" fill="white"/>
<path d="M56 23.375C56 21.511 54.6569 20 53 20C51.3431 20 50 21.511 50 23.375V43.625C50 45.489 51.3431 47 53 47C54.6569 47 56 45.489 56 43.625V23.375Z" fill="white"/>
<path d="M68 3.35C68 1.49985 66.6569 0 65 0C63.3431 0 62 1.49985 62 3.35V63.65C62 65.5002 63.3431 67 65 67C66.6569 67 68 65.5002 68 63.65V3.35Z" fill="white"/>
<path d="M31 3.35C31 1.49985 29.6569 0 28 0C26.3431 0 25 1.49985 25 3.35V63.65C25 65.5002 26.3431 67 28 67C29.6569 67 31 65.5002 31 63.65V3.35Z" fill="white"/>
<path d="M19 19.3333C19 17.4924 17.6569 16 16 16C14.3431 16 13 17.4924 13 19.3333V52.6667C13 54.5076 14.3431 56 16 56C17.6569 56 19 54.5076 19 52.6667V19.3333Z" fill="white"/>
</svg>
