<svg xmlns="http://www.w3.org/2000/svg" width="117" height="117" viewBox="0 0 117 117" fill="none">
  <path d="M47.775 78.8531L79.4625 58.2563L47.775 37.6594V78.8531ZM17.0625 97.5C15.1125 97.5 13.4062 96.7688 11.9438 95.3063C10.4813 93.8438 9.75 92.1375 9.75 90.1875V26.8125C9.75 24.8625 10.4813 23.1562 11.9438 21.6938C13.4062 20.2313 15.1125 19.5 17.0625 19.5H99.9375C101.888 19.5 103.594 20.2313 105.056 21.6938C106.519 23.1562 107.25 24.8625 107.25 26.8125V90.1875C107.25 92.1375 106.519 93.8438 105.056 95.3063C103.594 96.7688 101.888 97.5 99.9375 97.5H17.0625ZM17.0625 90.1875H99.9375V26.8125H17.0625V90.1875Z" fill="black"/>
</svg>